<?xml version="1.0" encoding="utf-8"?>
<!-- Generator: Adobe Illustrator 15.1.0, SVG Export Plug-In . SVG Version: 6.00 Build 0)  -->
<!DOCTYPE svg PUBLIC "-//W3C//DTD SVG 1.1//EN" "http://www.w3.org/Graphics/SVG/1.1/DTD/svg11.dtd">
<svg version="1.1" id="Layer_1" xmlns="http://www.w3.org/2000/svg" xmlns:xlink="http://www.w3.org/1999/xlink" x="0px" y="0px"
	 width="1920px" height="1080px" viewBox="0 0 1920 1080" enable-background="new 0 0 1920 1080" xml:space="preserve">
<g>
	<circle cx="953" cy="590" r="480"/>
	<rect x="693.296" y="298.181" opacity="0.3" fill="#C6C6C5" width="511.323" height="565.398"/>
	<rect x="693.296" y="314.181" opacity="0.3" fill="#C6C6C5" width="511.323" height="39.323"/>
	<rect x="702.296" y="761.181" opacity="0.3" fill="#C6C6C5" width="493.323" height="39.323"/>
	<rect x="693.296" y="298.181" opacity="0.3" fill="#999999" width="511.323" height="15.323"/>
	<rect x="718.296" y="361.798" opacity="0.3" fill="#C6C6C5" width="475.323" height="46.437"/>
	<rect x="693.296" y="824.254" opacity="0.3" fill="#C6C6C5" width="511.323" height="39.325"/>
	<rect x="727.089" y="407.443" opacity="0.5" fill="#C6C6C5" width="47.937" height="352.811"/>
	<rect x="727.089" y="863.975" opacity="0.5" fill="#C6C6C5" width="47.937" height="30.735"/>
	<rect x="1131.489" y="863.975" opacity="0.5" fill="#C6C6C5" width="47.938" height="30.735"/>
	<rect x="1139.183" y="409.443" opacity="0.5" fill="#C6C6C5" width="47.94" height="349.811"/>
	<rect x="775.026" y="483.158" opacity="0.5" fill="#C6C6C5" width="47.938" height="213.876"/>
	<rect x="822.964" y="483.158" opacity="0.5" fill="#C6C6C5" width="47.938" height="213.876"/>
	<rect x="893.028" y="431.532" opacity="0.5" fill="#C6C6C5" width="23.968" height="317.128"/>
	<rect x="1082.935" y="433.691" fill="#C6C6C5" width="23.969" height="312.813"/>
	<rect x="916.996" y="483.158" opacity="0.5" fill="#C6C6C5" width="165.938" height="213.876"/>
	<rect x="870.902" y="556.909" opacity="0.5" fill="#C6C6C5" width="22.354" height="47.937"/>
	<rect x="1106.903" y="556.909" opacity="0.5" fill="#C6C6C5" width="32.279" height="47.937"/>
	<rect x="1057.742" y="408.234" opacity="0.3" fill="#C6C6C5" width="14.746" height="49.477"/>
	<rect x="1150.742" y="800.401" opacity="0.3" fill="#C6C6C5" width="14.746" height="23.81"/>
	<rect x="981.759" y="273.577" opacity="0.3" fill="#C6C6C5" width="23.505" height="24.604"/>
	<rect x="893.256" y="285.876" opacity="0.3" fill="#C6C6C5" width="23.509" height="12.305"/>
	<polygon opacity="0.3" fill="#C6C6C5" points="852,297.396 739,298 763.273,275.065 832.182,275.065 	"/>
	<rect x="1114.897" y="408.234" opacity="0.3" fill="#C6C6C5" width="14.749" height="49.477"/>
	<g opacity="0.83">
		<g>
			<defs>
				<rect id="SVGID_1_" x="785.638" y="442.645" width="342.204" height="294.979"/>
			</defs>
			<clipPath id="SVGID_2_">
				<use xlink:href="#SVGID_1_"  overflow="visible"/>
			</clipPath>
			<g clip-path="url(#SVGID_2_)">
				<defs>
					<rect id="SVGID_3_" x="764.299" y="408.893" width="377.653" height="382.589"/>
				</defs>
				<clipPath id="SVGID_4_">
					<use xlink:href="#SVGID_3_"  overflow="visible"/>
				</clipPath>
				<path clip-path="url(#SVGID_4_)" fill="#FFFFFF" d="M1096.17,627.465c0.947,1.03,1.876,2.063,2.785,3.102
					c6.382-24.439,7.514-52.089,0.195-78.776c-1.741,2.024-3.503,3.933-5.242,5.71
					C1102.229,582.84,1101.192,606.818,1096.17,627.465"/>
				<path clip-path="url(#SVGID_4_)" fill="#FFFFFF" d="M1091.648,642.545c-11.441,32.129-30.512,53.093-30.512,53.093
					c13.254-10.8,25.125-28.547,33.031-49.86C1093.328,644.646,1092.48,643.56,1091.648,642.545"/>
				<path clip-path="url(#SVGID_4_)" fill="#FFFFFF" d="M1029.827,591.731c-5.512,3.606-11.298,7.26-17.327,10.922
					c2.492,1.658,4.977,3.535,7.374,5.679c6.473-3.982,12.468-7.82,17.938-11.428
					C1035.271,595.227,1032.611,593.503,1029.827,591.731"/>
				<path clip-path="url(#SVGID_4_)" fill="#FFFFFF" d="M849.471,681.941c-5.359,1.076-10.682,2.024-15.962,2.842
					c12.995,16.551,40.786,44.31,96.999,50.142c0.971,0.101,1.9,0.159,2.854,0.245l0.095-13.378
					c-23.888-2.186-42.237-9.457-42.237-9.457C874.031,703.066,860.323,692.785,849.471,681.941"/>
				<path clip-path="url(#SVGID_4_)" fill="#FFFFFF" d="M1088.637,525.067c-33.394-63.514-84.467-81.848-135.867-82.175
					c-38.976-0.248-85.1,15.135-117.399,52.558c0.001,0,0.003,0,0.004,0l-2.019,2.391c-0.123-0.015-0.24-0.028-0.361-0.042
					c-2.015,2.332-4.299,5.596-5.856,7.917c0.047,0.001,0.086,0.003,0.135,0.005l-1.805,2.584c-0.01,0-0.017,0-0.026,0
					c-0.028,0.042-0.052,0.08-0.072,0.113c-4.884,7.108-9.302,14.873-13.176,23.297c1.139,1.432,2.28,2.741,3.329,3.841l0.034,0.035
					l0.031,0.036c1.63,1.838,3.325,3.675,5.075,5.511c1.272-3.613,2.56-6.815,3.769-9.522c13.75-30.775,62.532-80.21,121.789-79.883
					c58.138,0.321,107.766,15.146,141.774,90.836c2.281-2.272,4.227-4.341,5.89-6.236
					C1092.329,532.536,1090.587,528.776,1088.637,525.067"/>
				<path clip-path="url(#SVGID_4_)" fill="#FFFFFF" d="M816.15,556.508c-3.249-3.075-6.454-6.209-9.593-9.416
					c-0.048-0.048-0.176-0.174-0.361-0.363c-20.557,61.473,9.566,116.063,16.832,124.605c3.307-0.132,5.701-0.459,5.73-0.464
					l0.047-0.006l0.048-0.006c3.198-0.328,6.424-0.734,9.672-1.208C807.658,630.429,809.038,586.324,816.15,556.508"/>
				<path clip-path="url(#SVGID_4_)" fill="#FFFFFF" d="M968.689,640.886c-0.408-0.181-0.821-0.37-1.229-0.553
					c-3.421,1.688-6.833,3.329-10.236,4.93c1.535,0.704,3.062,1.398,4.573,2.077c22.738,10.212,42.587,17.608,56.708,22.441
					c0.859-2.748,1.513-5.648,1.91-8.711c-14.166-4.684-30.184-10.796-47.066-18.135
					C971.804,642.264,970.248,641.578,968.689,640.886"/>
				<path clip-path="url(#SVGID_4_)" fill="#FFFFFF" d="M843.417,507.227c8.982,1.323,20.139,3.675,33.676,7.707
					c0.906-2.438,1.937-4.785,3.09-7.041c-11.165-3.302-21.454-5.787-30.656-7.549C847.354,502.653,845.316,504.954,843.417,507.227
					"/>
				<path clip-path="url(#SVGID_4_)" fill="#FFFFFF" d="M934.825,624.693c-2.815-1.444-5.632-2.916-8.449-4.415
					c-3.951-2.103-7.901-4.258-11.837-6.463c-1.482-0.831-2.962-1.669-4.44-2.513c-36.703-20.969-71.91-46.238-96.469-73.938
					c0,0-26.924-28.19,0-30.775c0,0,3.334-0.877,10.523-0.902c1.967-2.798,4.024-5.519,6.161-8.165
					c-6.15-0.581-11.43-0.708-15.701-0.428c-19.971,1.31-21.608,16.369-21.608,16.369c-0.94,11.049,7.401,22.602,12.182,28.24v0.001
					c0,0,4.271,5.245,13.873,13.961l0.002-0.006c29.312,27.541,62.675,49.895,94.467,67.548c2.147,1.191,4.287,2.364,6.417,3.513
					c7.117,3.84,14.13,7.434,20.982,10.804c0.001-0.001,0.002-0.001,0.003-0.001c3.437-1.547,6.853-3.123,10.241-4.727
					c-1.095-0.524-2.192-1.05-3.291-1.584L934.825,624.693z"/>
				<path clip-path="url(#SVGID_4_)" fill="#FFFFFF" d="M950.674,535.383c-8.448-3.934-16.353-7.441-23.44-10.459
					c-9.709-4.134-19.092-7.751-28.062-10.891c-0.706,1.12-1.394,2.275-2.063,3.473c-0.642,1.149-1.211,2.292-1.729,3.429
					c13.392,4.779,28.611,11.009,45.77,19.091C944.342,538.437,947.518,536.888,950.674,535.383"/>
				<path clip-path="url(#SVGID_4_)" fill="#FFFFFF" d="M1106.315,644.093c-27.815-39.566-89.555-76.379-139.559-101.006
					c-3.161,1.489-6.413,3.052-9.739,4.673c0.394,0.198,0.78,0.39,1.177,0.59c10.249,1.362,19.36,6.366,25.995,13.662
					c92.675,50.365,108.048,77.171,108.048,77.171s1.434,1.644,3.352,4.159l1.609,1.742c-0.033,0.096-0.069,0.189-0.104,0.284
					c4.489,6.2,10.11,15.499,7.585,20.333c-1.885,3.608-4.127,9.697-21.948,9.055c-2.086,3.232-4.275,6.296-6.557,9.172
					c7.841,0.336,16.193-0.233,24.168-2.512C1127.842,673.559,1106.315,644.093,1106.315,644.093"/>
				<path clip-path="url(#SVGID_4_)" fill="#FFFFFF" d="M1073.581,673.978c-8.44-1.062-19.313-3.227-33.397-6.967
					c-0.329-0.087-0.664-0.178-0.996-0.268c-0.453,3.021-1.137,6.038-2.032,9.029c2.396,0.711,3.683,1.061,3.683,1.061
					s11.515,4.474,26.664,6.36C1069.364,680.556,1071.431,677.467,1073.581,673.978"/>
				<path clip-path="url(#SVGID_4_)" fill="#FFFFFF" d="M1086.563,498.021c-3.725,0.239-7.458,0.574-11.196,0.992
					c1.745,2.34,3.446,4.75,5.105,7.228c7.299-0.167,18.898,0.443,21.879,5.715c4.183,7.397,9.839,14.231-28.265,46.861
					c-1.431-0.733-3.048-1.155-4.766-1.155c-5.786,0-10.477,4.69-10.477,10.477c0,0.977,0.143,1.918,0.394,2.815
					c-5.07,3.915-10.683,8.018-16.743,12.235c2.606,1.745,5.195,3.514,7.757,5.309c6.018-4.172,11.048-7.814,14.96-10.721
					c1.262,0.539,2.649,0.838,4.109,0.838c5.785,0,10.476-4.689,10.476-10.477c0-0.468-0.041-0.924-0.102-1.375
					c8.435-6.671,25.828-22.264,33.019-42.298C1122.378,497.547,1086.563,498.021,1086.563,498.021"/>
				<path clip-path="url(#SVGID_4_)" fill="#FFFFFF" d="M1060.312,501.145c-12.184,2.072-24.356,4.965-36.37,8.469
					c0.032,0.112,0.069,0.223,0.101,0.335c0.618,2.183,1.091,4.328,1.428,6.434c18.889-6.196,31.583-8.561,39.293-9.423
					C1063.298,504.952,1061.816,503.009,1060.312,501.145"/>
				<path clip-path="url(#SVGID_4_)" fill="#FFFFFF" d="M905.869,571.767c4.11-2.354,8.378-4.744,12.818-7.171
					c7.462-9.619,18.923-15.983,31.869-16.571c25.144-12.468,45.79-21.208,62.531-27.336c-0.379-2.193-1.086-4.397-2.125-6.629
					c-0.055-0.12-0.117-0.235-0.174-0.354c-42.003,13.865-81.332,34.334-111.426,51.866
					C901.157,567.611,903.332,569.737,905.869,571.767"/>
				<path clip-path="url(#SVGID_4_)" fill="#FFFFFF" d="M878.379,588.46c3.533-2.282,7.214-4.604,11.083-6.977
					c-2.312-2.158-4.266-4.306-5.915-6.367c-0.02-0.025-0.038-0.05-0.058-0.074c-4.415,2.705-8.669,5.418-12.783,8.126
					C873.238,584.949,875.796,586.714,878.379,588.46"/>
				<path clip-path="url(#SVGID_4_)" fill="#FFFFFF" d="M858.559,591.448c-16.191,11.448-29.589,22.613-39.968,32.603
					c0.81,3.115,1.74,6.178,2.788,9.189c9.366-9.594,23.508-21.975,44.608-36.523C863.507,594.994,861.03,593.234,858.559,591.448"
					/>
				<path clip-path="url(#SVGID_4_)" fill="#FFFFFF" d="M991.827,614.698c-49.712,27.776-110.472,53.396-162.707,58.766
					c0,0-38.603,5.42-24.994-17.956c0,0,0.965-2.288,3.947-6.562c-1.246-3.086-2.468-6.387-3.619-9.883
					c-3.098,3.713-5.597,7.11-7.467,10.109c-10.588,16.983,0.688,27.098,0.688,27.098c11.733,10.041,34.77,6.03,34.77,6.03
					c63.938-9.781,124.03-37.354,168.405-62.69C998.12,617.848,995.111,616.21,991.827,614.698"/>
				<path clip-path="url(#SVGID_4_)" fill="#FFFFFF" d="M991.105,595.514c-2.668-0.754-5.577-1.449-8.676-2.105
					c-0.427,4.905-2.036,9.475-4.544,13.424c2.793,0.792,5.691,1.727,8.616,2.821C988.891,605.371,990.486,600.592,991.105,595.514"
					/>
				<path clip-path="url(#SVGID_4_)" fill="#FFFFFF" d="M922.494,590.787c0-2.517,0.316-4.961,0.901-7.299
					c-2.98-0.756-5.775-1.764-8.37-2.959c-0.895,3.271-1.383,6.708-1.383,10.258c0,0.982,0.045,1.953,0.117,2.917
					c2.908,1.202,6.036,2.32,9.394,3.335C922.725,595.021,922.494,592.931,922.494,590.787"/>
				<path clip-path="url(#SVGID_4_)" fill="#FFFFFF" d="M924.097,581.131c4.031-11.833,15.247-20.371,28.426-20.371
					c16.558,0,30.029,13.47,30.029,30.028c0,0.044-0.004,0.089-0.004,0.134c3.126,0.655,6.071,1.351,8.786,2.104
					c0.042-0.742,0.069-1.487,0.069-2.238c0-21.439-17.442-38.881-38.881-38.881c-17.016,0-31.503,10.993-36.761,26.245
					C918.461,579.419,921.249,580.414,924.097,581.131"/>
				<path clip-path="url(#SVGID_4_)" fill="#FFFFFF" d="M976.394,608.977c-5.49,7.189-14.146,11.84-23.871,11.84
					c-13.417,0-24.805-8.847-28.643-21.013c-3.422-0.984-6.695-2.095-9.813-3.332c1.044,7.092,4.005,13.568,8.346,18.879
					c1.702,0.927,3.41,1.849,5.119,2.757c2.702,1.438,5.53,2.917,8.405,4.393l13.031,6.507c0.402,0.195,0.808,0.389,1.212,0.584
					c0.776,0.046,1.556,0.077,2.344,0.077c2.198,0,4.35-0.192,6.449-0.545c7.542-3.689,14.527-7.29,20.813-10.648
					c2.045-2.014,3.86-4.259,5.424-6.681C982.213,610.689,979.244,609.762,976.394,608.977"/>
				<path clip-path="url(#SVGID_4_)" fill="#FFFFFF" d="M990.963,611.446l4.984-14.399c-15.763-5.637-43.804-8.113-69.532-12.886
					c-5.438-1.009-10.294-2.888-14.548-5.222l-3.525,12.313c11.2,5.543,26.132,9.811,46.064,11.243
					C954.406,602.495,973.048,603.691,990.963,611.446"/>
				<path clip-path="url(#SVGID_4_)" fill="#FFFFFF" d="M1000.077,598.73c-14.568-6.875-45.506-9.347-73.662-14.568
					c-22.102-4.101-34.669-22.537-35.652-27.775c-0.982-5.238-6.09-21.989,4.059-40.159c10.149-18.169,25.536-30.393,56.847-31.539
					c31.31-1.146,52.829,9.276,61.668,28.265c3.459,7.432,3.217,14.052,1.325,19.721c-0.06,0.177-0.129,0.346-0.19,0.52l0.007,0.004
					c0,0-3.745,10.562-2.997,10.966c2.447,1.322,6.596-1.362,8.68-5.158c3.368-7.204,4.71-16.516,1.36-28.345
					c-10.476-36.995-61.764-39.287-67.972-38.632c-6.208,0.655-81.318-0.084-78.698,76.61c0,0,2.127,48.289,79.555,53.855
					c0,0,69.08,4.42,69.08,51.565c0,47.143-56.406,69.404-90.124,67.731l-0.154,13.378c66.442,2.454,104.684-40.623,104.028-78.272
					C1036.582,619.248,1014.646,605.604,1000.077,598.73"/>
				<path clip-path="url(#SVGID_4_)" fill="#FFFFFF" d="M1075.559,566.849l2.232-0.879c0,0,1.527,8.004-5.743,10.067
					C1072.048,576.037,1076.57,570.632,1075.559,566.849"/>
			</g>
		</g>
	</g>
	<g>
		<line fill="#DBDADA" x1="1031.306" y1="482.755" x2="1031.306" y2="0"/>
		<line opacity="0.54" fill="none" stroke="#DBDADA" stroke-width="5.6911" x1="1031.306" y1="482.755" x2="1031.306" y2="0"/>
	</g>
	<path opacity="0.48" fill="#FFFFFF" d="M797.727,824.254h406.892v-462.52h-65.453
		C1139.166,361.734,1032.459,723.177,797.727,824.254z"/>
	<rect x="743.242" y="800.401" opacity="0.3" fill="#C6C6C5" width="14.746" height="23.81"/>
</g>
</svg>
